<?xml version="1.0" encoding="UTF-8"?>
<svg width="64px" height="64px" viewBox="0 0 64 64" version="1.1" xmlns="http://www.w3.org/2000/svg" xmlns:xlink="http://www.w3.org/1999/xlink">
    <!-- Generator: Sketch 44.1 (41455) - http://www.bohemiancoding.com/sketch -->
    <title>Category</title>
    <desc>Created with Sketch.</desc>
    <defs></defs>
    <g id="Icons-2017" stroke="none" stroke-width="1" fill="none" fill-rule="evenodd">
        <g id="Category" fill="#000000">
            <path d="M16,5.60287081 L16,16.0143541 C16,16.7431579 15.7422222,17.3591707 15.2284444,17.8623923 C14.7111111,18.365614 14.08,18.6172249 13.3333333,18.6172249 L2.66666667,18.6172249 C1.92,18.6172249 1.28888889,18.365614 0.773333333,17.8623923 C0.257777778,17.3591707 0,16.7431579 0,16.0143541 L0,5.60287081 C0,4.87406699 0.257777778,4.25805423 0.773333333,3.75483254 C1.28888889,3.25334609 1.92,3 2.66666667,3 L13.3333333,3 C14.08,3 14.7111111,3.25334609 15.2284444,3.75483254 C15.7422222,4.25805423 16,4.87406699 16,5.60287081 C16,5.60287081 16,4.87406699 16,5.60287081 L16,5.60287081 L16,5.60287081 Z M16,36.8373206 L16,26.4258373 C16,25.6970335 15.7422222,25.0810207 15.2284444,24.577799 C14.7111111,24.0763126 14.08,23.8229665 13.3333333,23.8229665 L2.66666667,23.8229665 C1.92,23.8229665 1.28888889,24.0763126 0.773333333,24.577799 C0.257777778,25.0810207 0,25.6970335 0,26.4258373 L0,36.8373206 C0,37.5661244 0.257777778,38.1821372 0.773333333,38.6853589 C1.28888889,39.1885805 1.92,39.4401914 2.66666667,39.4401914 L13.3333333,39.4401914 C14.08,39.4401914 14.7111111,39.1885805 15.2284444,38.6853589 C15.7422222,38.1821372 16,37.5661244 16,36.8373206 C16,36.8373206 16,37.5661244 16,36.8373206 L16,36.8373206 L16,36.8373206 Z M16,47.2488038 L16,57.6602871 C16,58.3890909 15.7422222,59.0051037 15.2284444,59.5083254 C14.7111111,60.011547 14.08,60.2631579 13.3333333,60.2631579 L2.66666667,60.2631579 C1.92,60.2631579 1.28888889,60.011547 0.773333333,59.5083254 C0.257777778,59.0051037 0,58.3890909 0,57.6602871 L0,47.2488038 C0,46.52 0.257777778,45.9039872 0.773333333,45.4007656 C1.28888889,44.8992791 1.92,44.645933 2.66666667,44.645933 L13.3333333,44.645933 C14.08,44.645933 14.7111111,44.8992791 15.2284444,45.4007656 C15.7422222,45.9039872 16,46.52 16,47.2488038 C16,47.2488038 16,46.52 16,47.2488038 L16,47.2488038 L16,47.2488038 Z M64,5.60287081 L64,16.0143541 C64,16.7431579 63.7422222,17.3591707 63.2284444,17.8623923 C62.7111111,18.365614 62.08,18.6172249 61.3333333,18.6172249 L24,18.6172249 C23.2533333,18.6172249 22.6222222,18.365614 22.1066667,17.8623923 C21.5911111,17.3591707 21.3333333,16.7431579 21.3333333,16.0143541 L21.3333333,5.60287081 C21.3333333,4.87406699 21.5911111,4.25805423 22.1066667,3.75483254 C22.6222222,3.25334609 23.2533333,3 24,3 L61.3333333,3 C62.08,3 62.7111111,3.25334609 63.2284444,3.75483254 C63.7422222,4.25805423 64,4.87406699 64,5.60287081 C64,5.60287081 64,4.87406699 64,5.60287081 L64,5.60287081 L64,5.60287081 Z M64,26.4258373 L64,36.8373206 C64,37.5661244 63.7422222,38.1821372 63.2284444,38.6853589 C62.7111111,39.1885805 62.08,39.4401914 61.3333333,39.4401914 L24,39.4401914 C23.2533333,39.4401914 22.6222222,39.1885805 22.1066667,38.6853589 C21.5911111,38.1821372 21.3333333,37.5661244 21.3333333,36.8373206 L21.3333333,26.4258373 C21.3333333,25.6970335 21.5911111,25.0810207 22.1066667,24.577799 C22.6222222,24.0763126 23.2533333,23.8229665 24,23.8229665 L61.3333333,23.8229665 C62.08,23.8229665 62.7111111,24.0763126 63.2284444,24.577799 C63.7422222,25.0810207 64,25.6970335 64,26.4258373 C64,26.4258373 64,25.6970335 64,26.4258373 L64,26.4258373 L64,26.4258373 Z M64,47.2488038 L64,57.6602871 C64,58.3890909 63.7422222,59.0051037 63.2284444,59.5083254 C62.7111111,60.011547 62.08,60.2631579 61.3333333,60.2631579 L24,60.2631579 C23.2533333,60.2631579 22.6222222,60.011547 22.1066667,59.5083254 C21.5911111,59.0051037 21.3333333,58.3890909 21.3333333,57.6602871 L21.3333333,47.2488038 C21.3333333,46.52 21.5911111,45.9039872 22.1066667,45.4007656 C22.6222222,44.8992791 23.2533333,44.645933 24,44.645933 L61.3333333,44.645933 C62.08,44.645933 62.7111111,44.8992791 63.2284444,45.4007656 C63.7422222,45.9039872 64,46.52 64,47.2488038 L64,47.2488038 Z" id="Fill-18"></path>
        </g>
    </g>
</svg>