<?xml version="1.0" encoding="UTF-8"?>
<svg width="64px" height="64px" viewBox="0 0 64 64" version="1.1" xmlns="http://www.w3.org/2000/svg" xmlns:xlink="http://www.w3.org/1999/xlink">
    <!-- Generator: Sketch 44.1 (41455) - http://www.bohemiancoding.com/sketch -->
    <title>FAQ</title>
    <desc>Created with Sketch.</desc>
    <defs></defs>
    <g id="Icons-2017" stroke="none" stroke-width="1" fill="none" fill-rule="evenodd">
        <g id="FAQ" fill="#000000">
            <path d="M25.7101409,56.606622 C13.2574875,53.5886536 4,42.2379442 4,28.6965827 C4,12.8478977 16.6810419,0 32.3238998,0 C47.9667577,0 60.6477996,12.8478977 60.6477996,28.6965827 C60.6477996,35.5961794 58.2444559,41.9270592 54.2396738,46.8767654 C45.6502592,58.6450366 25.6701877,64.1666945 25.6701877,64.1666945 L25.7101409,56.606622 Z M24.6077837,25.6447374 L24.6077837,29.7241535 L28.6342204,29.7241535 L28.6342204,37.8829859 L24.6077837,37.8829859 L24.6077837,41.9624021 L40.7135307,41.9624021 L40.7135307,37.8829859 L36.6870939,37.8829859 L36.6870939,25.6447374 L24.6077837,25.6447374 Z M28.6342204,21.5653212 L36.6870939,21.5653212 L36.6870939,17.485905 L28.6342204,17.485905 L28.6342204,21.5653212 Z" id="Combined-Shape"></path>
        </g>
    </g>
</svg>