<?xml version="1.0" encoding="UTF-8"?>
<svg width="64px" height="64px" viewBox="0 0 64 64" version="1.1" xmlns="http://www.w3.org/2000/svg" xmlns:xlink="http://www.w3.org/1999/xlink">
  <!-- Generator: Sketch 44.1 (41455) - http://www.bohemiancoding.com/sketch -->
  <title>Socialmedia_googleplus</title>
  <desc>Created with Sketch.</desc>
  <defs></defs>
  <g id="Icons-2017" stroke="none" stroke-width="1" fill="none" fill-rule="evenodd">
    <g id="Socialmedia_googleplus" fill="#000000">
      <g id="Group">
        <path d="M0,63.4618947 L0,0 L63.4618947,0 L63.4618947,63.4618947 L0,63.4618947 Z M30.72,9.94526316 L34.6164211,9.94526316 L38.5204211,7.66568421 L25.8795789,7.66568421 C24.2037895,7.66568421 22.4058947,7.86021053 20.4884211,8.25094737 C18.5515789,8.70652632 16.6846316,9.67073684 14.8884211,11.1486316 C12.2686316,13.6783158 10.9616842,16.4926316 10.9616842,19.5983158 C10.9616842,22.1658947 11.8854737,24.416 13.7347368,26.3511579 C15.4989474,28.4261053 18.0631579,29.4846316 21.4298947,29.5267368 C22.064,29.5267368 22.7427368,29.4846316 23.4593684,29.4037895 C23.3423158,29.7355789 23.2126316,30.0943158 23.0728421,30.4884211 C22.9153684,30.8589474 22.8370526,31.3263158 22.8370526,31.8846316 C22.8370526,32.8126316 23.0433684,33.6092632 23.4593684,34.2703158 C23.8164211,34.9524211 24.2223158,35.5924211 24.6787368,36.1928421 C23.2033684,36.2332632 21.3515789,36.4193684 19.1191579,36.7461053 C16.8648421,37.136 14.7141053,37.9183158 12.6686316,39.0854737 C10.8446316,40.1726316 9.58484211,41.4349474 8.89178947,42.8690526 C8.17094737,44.3056842 7.81389474,45.6109474 7.81389474,46.7797895 C7.81389474,49.1797895 8.91789474,51.2412632 11.1191579,52.9667368 C13.3035789,54.8109474 16.6088421,55.7549474 21.0366316,55.7962105 C26.3258947,55.7128421 30.3747368,54.4505263 33.1772632,52.0042105 C35.8821053,49.6370526 37.2362105,46.9246316 37.2362105,43.8610526 C37.1941053,41.7044211 36.7014737,39.9578947 35.7557895,38.6206316 C34.752,37.3044211 33.5831579,36.1061053 32.2509474,35.0138947 L30.1061053,33.2564211 C29.7962105,32.9490526 29.4770526,32.5886316 29.1494737,32.1768421 C28.7629474,31.7456842 28.5701053,31.2025263 28.5701053,30.5414737 C28.5701053,29.8627368 28.7587368,29.2682105 29.1351579,28.7545263 C29.4551579,28.2602105 29.8021053,27.8181053 30.1802105,27.4282105 C30.8378947,26.8522105 31.4576842,26.2854737 32.0429474,25.7322105 C32.5701053,25.1772632 33.0694737,24.5709474 33.5385263,23.9132632 C34.5010526,22.5557895 35.0012632,20.7469474 35.0366316,18.4858947 C35.0366316,17.2530526 34.8993684,16.1726316 34.6206316,15.2488421 C34.2821053,14.3216842 33.8947368,13.5216842 33.4576842,12.8437895 C33.0012632,12.1263158 32.5347368,11.5166316 32.0589474,11.0231579 C31.5629474,10.5507368 31.1183158,10.1911579 30.72,9.94526316 Z M33.1604211,46.3317895 C33.1604211,48.3065263 32.3957895,49.9191579 30.8648421,51.1747368 C29.2976842,52.4488421 27.0223158,53.1073684 24.0429474,53.1494737 C20.7208421,53.1073684 18.1069474,52.3671579 16.1928421,50.928 C14.1802105,49.4896842 13.1764211,47.6597895 13.1764211,45.4391579 C13.1764211,44.3090526 13.4054737,43.3423158 13.8703158,42.5397895 C14.2711579,41.7785263 14.7637895,41.1410526 15.3482105,40.6273684 C15.9536842,40.1338947 16.5465263,39.7532632 17.1309474,39.4863158 C17.7136842,39.2395789 18.1650526,39.0543158 18.4875789,38.9305263 C19.8568421,38.5187368 21.1966316,38.2214737 22.5035789,38.0353684 C23.8315789,37.9132632 24.6576842,37.8736842 24.9793684,37.9132632 C25.5225263,37.9132632 25.9949474,37.9326316 26.3991579,37.9738947 C28.7545263,39.6210526 30.4842105,41.008 31.5924211,42.1389474 C32.6374737,43.3305263 33.1604211,44.7267368 33.1604211,46.3317895 Z M24.3477895,27.8029474 C23.0307368,27.8029474 21.8602105,27.4012632 20.8362105,26.5962105 C19.8096842,25.7928421 18.9768421,24.8143158 18.3275789,23.6623158 C16.9886316,21.1890526 16.3225263,18.8126316 16.3225263,16.5263158 C16.2787368,14.7957895 16.7368421,13.2303158 17.6943158,11.8298947 C18.8311579,10.4909474 20.2543158,9.80042105 21.968,9.75915789 C23.2623158,9.80042105 24.4067368,10.1827368 25.4046316,10.9018947 C26.3797895,11.6631579 27.1663158,12.6534737 27.7658947,13.8669474 C29.0408421,16.3991579 29.6783158,18.9136842 29.6783158,21.4046316 C29.6783158,21.9831579 29.6311579,22.6913684 29.5393684,23.5368421 C29.3877895,24.3823158 29.0433684,25.2058947 28.5077895,26.0084211 C27.3987368,27.1418947 26.0126316,27.7406316 24.3477895,27.8029474 Z M55.6463158,14.5692632 L49.0138947,14.5692632 L49.0138947,7.936 L45.8004211,7.936 L45.8004211,14.5692632 L39.1688421,14.5692632 L39.1688421,17.7835789 L45.8004211,17.7835789 L45.8004211,24.4151579 L49.0138947,24.4151579 L49.0138947,17.7835789 L55.6463158,17.7835789 L55.6463158,14.5692632 Z" id="Combined-Shape"></path>
      </g>
    </g>
  </g>
</svg>
