<?xml version="1.0" encoding="UTF-8"?>
<svg width="64px" height="64px" viewBox="0 0 64 64" version="1.1" xmlns="http://www.w3.org/2000/svg" xmlns:xlink="http://www.w3.org/1999/xlink">
    <!-- Generator: Sketch 44.1 (41455) - http://www.bohemiancoding.com/sketch -->
    <title>Profile</title>
    <desc>Created with Sketch.</desc>
    <defs></defs>
    <g id="Icons-2017" stroke="none" stroke-width="1" fill="none" fill-rule="evenodd">
        <g id="Profile" fill="#000000">
            <path d="M64,56.3733333 L64,64 L0,64 L0,56.3733333 L21.3333333,42.6666667 L21.3333333,37.3333333 C20.0177778,37.3333333 18.8017778,36.0088889 17.6817778,33.36 C16.56,30.7111111 16,28.48 16,26.6666667 L16,16 C16,11.5928889 17.5644444,7.82222222 20.6951111,4.69333333 C23.824,1.56444444 27.5911111,0 32,0 C36.4088889,0 40.1777778,1.56444444 43.3066667,4.69333333 C46.4355556,7.82222222 48,11.5928889 48,16 L48,26.6666667 C48,28.48 47.4417778,30.7111111 46.32,33.36 C45.2,36.0088889 43.984,37.3333333 42.6666667,37.3333333 L42.6666667,42.6666667 L64,56.3733333" id="Fill-14"></path>
        </g>
    </g>
</svg>