<?xml version="1.0" encoding="UTF-8"?>
<svg width="64px" height="64px" viewBox="0 0 64 64" version="1.1" xmlns="http://www.w3.org/2000/svg" xmlns:xlink="http://www.w3.org/1999/xlink">
    <!-- Generator: Sketch 44.1 (41455) - http://www.bohemiancoding.com/sketch -->
    <title>Search</title>
    <desc>Created with Sketch.</desc>
    <defs></defs>
    <g id="Icons-2017" stroke="none" stroke-width="1" fill="none" fill-rule="evenodd">
        <g id="Search" fill="#231F1F">
            <path d="M47.587413,39.8329156 L63.6275132,55.8730159 C63.8752437,56.1581732 64,56.4789752 64,56.8354219 C64,57.1918686 63.8752437,57.5126706 63.6275132,57.7978279 L57.7978279,63.625731 C57.5108883,63.8752437 57.1918686,64 56.8354219,64 C56.4789752,64 56.1581732,63.8752437 55.8730159,63.625731 L39.8329156,47.5856307 C35.5912002,50.3659148 30.9395712,51.7560568 25.8780284,51.7560568 C18.7473127,51.7560568 12.6520746,49.2252854 7.59409635,44.1637427 C2.53077137,39.1021999 0,33.0069618 0,25.8780284 C0,18.749095 2.53077137,12.6538569 7.59409635,7.59231412 C12.6520746,2.53077137 18.7473127,0 25.8780284,0 C33.0069618,0 39.1021999,2.53077137 44.1655249,7.59231412 C49.2252854,12.6538569 51.757839,18.749095 51.757839,25.8780284 C51.757839,30.9395712 50.367697,35.5912002 47.587413,39.8329156 C47.587413,39.8329156 50.367697,35.5912002 47.587413,39.8329156 L47.587413,39.8329156 L47.587413,39.8329156 Z M13.3667502,13.4202172 C9.90921749,16.8777499 8.18045113,21.0303537 8.18045113,25.8780284 C8.18045113,30.7257031 9.90921749,34.8783069 13.3667502,38.3358396 C16.8242829,41.7933723 20.994709,43.5221387 25.8780284,43.5221387 C30.7613478,43.5221387 34.9228627,41.8040657 38.3625731,38.3625731 C41.8022835,34.9228627 43.5221387,30.7613478 43.5221387,25.8780284 C43.5221387,20.994709 41.8022835,16.8331941 38.3625731,13.3934837 C34.9228627,9.95377332 30.7613478,8.23391813 25.8780284,8.23391813 C20.994709,8.23391813 16.8242829,9.96268449 13.3667502,13.4202172 L13.3667502,13.4202172 Z" id="Fill-10"></path>
        </g>
    </g>
</svg>