<?xml version="1.0" encoding="UTF-8"?>
<svg width="64px" height="64px" viewBox="0 0 64 64" version="1.1" xmlns="http://www.w3.org/2000/svg" xmlns:xlink="http://www.w3.org/1999/xlink">
  <!-- Generator: Sketch 44.1 (41455) - http://www.bohemiancoding.com/sketch -->
  <title>Socialmedia_twitter</title>
  <desc>Created with Sketch.</desc>
  <defs></defs>
  <g id="Icons-2017" stroke="none" stroke-width="1" fill="none" fill-rule="evenodd">
    <g id="Socialmedia_twitter" fill="#000000">
      <g id="Group">
        <path d="M0,64 L0,0 L64,0 L64,64 L0,64 Z M53.76,19.2987895 C52.1582866,19.9680251 50.4370294,20.4196164 48.6317451,20.6217728 C50.4751448,19.5816455 51.8932113,17.9366792 52.5576321,15.9738056 C50.8346424,16.936494 48.9245407,17.6367051 46.8896976,18.0141181 C45.2602639,16.3797487 42.9386891,15.36 40.3710966,15.36 C35.4403487,15.36 31.4416959,19.1219027 31.4416959,23.7617185 C31.4416959,24.4211723 31.5213917,25.0610625 31.6721209,25.6756832 C24.2526101,25.3268004 17.6742371,21.9822529 13.2693087,16.8965518 C12.501803,18.1396507 12.060877,19.5816455 12.060877,21.122273 C12.060877,24.0356078 13.6366026,26.6090264 16.0318096,28.1146026 C14.5686976,28.072215 13.1922116,27.6923565 11.9881112,27.0638783 L11.9881112,27.1698474 C11.9881112,31.2398756 15.0667967,34.6357773 19.1494767,35.4077214 C18.4018949,35.5992809 17.6110002,35.7044348 16.7967165,35.7044348 C16.2232529,35.7044348 15.6619168,35.64982 15.117906,35.5511872 C16.2535719,38.8900287 19.5505547,41.3175359 23.4573841,41.3876386 C20.4038201,43.6407044 16.5541639,44.9840664 12.3675328,44.9840664 C11.6485376,44.9840664 10.938205,44.9433091 10.24,44.8666853 C14.1910086,47.2485443 18.8844014,48.64 23.9286292,48.64 C40.3511726,48.64 49.3316826,35.8397492 49.3316826,24.7358189 C49.3316826,24.3722635 49.3212874,24.0103383 49.306561,23.6467828 C51.0477422,22.4648198 52.5602309,20.9845132 53.76,19.2987895 Z" id="Combined-Shape"></path>
      </g>
    </g>
  </g>
</svg>
